<svg xmlns="http://www.w3.org/2000/svg" width="1440" height="900"><path d="M771,486L888,604L946,326Z" fill="#5fa5d0" stroke="#5fa5d0" stroke-width="1.51"/><path d="M888,604L1107,500L946,326Z" fill="#569fcd" stroke="#569fcd" stroke-width="1.51"/><path d="M946,326L770,300L771,486Z" fill="#6faed5" stroke="#6faed5" stroke-width="1.51"/><path d="M1107,500L1153,379L946,326Z" fill="#5c9fce" stroke="#5c9fce" stroke-width="1.51"/><path d="M888,604L1056,708L1107,500Z" fill="#4794c8" stroke="#4794c8" stroke-width="1.51"/><path d="M695,792L971,727L888,604Z" fill="#4a95c8" stroke="#4a95c8" stroke-width="1.51"/><path d="M971,727L1056,708L888,604Z" fill="#4291c6" stroke="#4291c6" stroke-width="1.51"/><path d="M1107,500L1305,614L1153,379Z" fill="#4a91c6" stroke="#4a91c6" stroke-width="1.51"/><path d="M946,326L758,150L770,300Z" fill="#7eb6d8" stroke="#7eb6d8" stroke-width="1.51"/><path d="M1153,379L982,132L946,326Z" fill="#6fa9d2" stroke="#6fa9d2" stroke-width="1.51"/><path d="M485,603L695,792L771,486Z" fill="#62a5d1" stroke="#62a5d1" stroke-width="1.51"/><path d="M982,132L758,150L946,326Z" fill="#80b5d8" stroke="#80b5d8" stroke-width="1.51"/><path d="M771,486L695,792L888,604Z" fill="#569ecd" stroke="#569ecd" stroke-width="1.51"/><path d="M971,727L1136,891L1056,708Z" fill="#3684c0" stroke="#3684c0" stroke-width="1.51"/><path d="M485,603L771,486L452,313Z" fill="#79b4d9" stroke="#79b4d9" stroke-width="1.51"/><path d="M1056,708L1305,614L1107,500Z" fill="#3f8bc3" stroke="#3f8bc3" stroke-width="1.51"/><path d="M452,313L771,486L770,300Z" fill="#7cb7da" stroke="#7cb7da" stroke-width="1.51"/><path d="M1153,379L1162,88L982,132Z" fill="#76a9d2" stroke="#76a9d2" stroke-width="1.51"/><path d="M982,132L876,10L758,150Z" fill="#8dbbdc" stroke="#8dbbdc" stroke-width="1.51"/><path d="M1305,205L1162,88L1153,379Z" fill="#6fa1ce" stroke="#6fa1ce" stroke-width="1.51"/><path d="M1087,-76L876,10L982,132Z" fill="#8db8dc" stroke="#8db8dc" stroke-width="1.51"/><path d="M758,150L563,152L770,300Z" fill="#8dbfde" stroke="#8dbfde" stroke-width="1.51"/><path d="M653,-60L563,152L758,150Z" fill="#9cc6e2" stroke="#9cc6e2" stroke-width="1.51"/><path d="M695,792L783,915L971,727Z" fill="#478ec5" stroke="#478ec5" stroke-width="1.51"/><path d="M1056,708L1316,765L1305,614Z" fill="#3381bd" stroke="#3381bd" stroke-width="1.51"/><path d="M537,922L783,915L695,792Z" fill="#518fc5" stroke="#518fc5" stroke-width="1.51"/><path d="M1378,357L1305,205L1153,379Z" fill="#6097c9" stroke="#6097c9" stroke-width="1.51"/><path d="M783,915L883,935L971,727Z" fill="#3e87c1" stroke="#3e87c1" stroke-width="1.51"/><path d="M1305,614L1378,357L1153,379Z" fill="#4c8ec6" stroke="#4c8ec6" stroke-width="1.51"/><path d="M883,935L1136,891L971,727Z" fill="#3381be" stroke="#3381be" stroke-width="1.51"/><path d="M563,152L452,313L770,300Z" fill="#90c2de" stroke="#90c2de" stroke-width="1.51"/><path d="M1136,891L1316,765L1056,708Z" fill="#2f7cbb" stroke="#2f7cbb" stroke-width="1.51"/><path d="M1305,614L1527,486L1378,357Z" fill="#4485be" stroke="#4485be" stroke-width="1.51"/><path d="M485,603L454,736L695,792Z" fill="#67a3cf" stroke="#67a3cf" stroke-width="1.51"/><path d="M374,753L454,736L485,603Z" fill="#73a9d2" stroke="#73a9d2" stroke-width="1.51"/><path d="M1162,88L1087,-76L982,132Z" fill="#87b0d8" stroke="#87b0d8" stroke-width="1.51"/><path d="M1260,-72L1087,-76L1162,88Z" fill="#88add7" stroke="#88add7" stroke-width="1.51"/><path d="M351,97L277,371L452,313Z" fill="#a3cbe2" stroke="#a3cbe2" stroke-width="1.51"/><path d="M876,10L653,-60L758,150Z" fill="#99c3e2" stroke="#99c3e2" stroke-width="1.51"/><path d="M745,-308L653,-60L876,10Z" fill="#a3c9e5" stroke="#a3c9e5" stroke-width="1.51"/><path d="M726,1216L918,1192L883,935Z" fill="#3973ae" stroke="#3973ae" stroke-width="1.51"/><path d="M454,736L537,922L695,792Z" fill="#5f9aca" stroke="#5f9aca" stroke-width="1.51"/><path d="M454,736L374,753L537,922Z" fill="#6ba0cd" stroke="#6ba0cd" stroke-width="1.51"/><path d="M250,505L374,753L485,603Z" fill="#7db2d7" stroke="#7db2d7" stroke-width="1.51"/><path d="M1586,745L1527,486L1305,614Z" fill="#3378b6" stroke="#3378b6" stroke-width="1.51"/><path d="M1378,357L1556,329L1305,205Z" fill="#5f90c3" stroke="#5f90c3" stroke-width="1.51"/><path d="M1305,205L1260,-72L1162,88Z" fill="#7ea5d2" stroke="#7ea5d2" stroke-width="1.51"/><path d="M653,-60L565,-49L563,152Z" fill="#a8cce5" stroke="#a8cce5" stroke-width="1.51"/><path d="M1526,99L1260,-72L1305,205Z" fill="#7a9dcd" stroke="#7a9dcd" stroke-width="1.51"/><path d="M452,313L277,371L485,603Z" fill="#8bbedd" stroke="#8bbedd" stroke-width="1.51"/><path d="M351,97L452,313L563,152Z" fill="#a3cce3" stroke="#a3cce3" stroke-width="1.51"/><path d="M1316,765L1586,745L1305,614Z" fill="#2b75b5" stroke="#2b75b5" stroke-width="1.51"/><path d="M1136,891L1329,973L1316,765Z" fill="#2170b4" stroke="#2170b4" stroke-width="1.51"/><path d="M1269,1164L1329,973L1136,891Z" fill="#1c66ac" stroke="#1c66ac" stroke-width="1.51"/><path d="M918,1192L1136,891L883,935Z" fill="#3076b4" stroke="#3076b4" stroke-width="1.51"/><path d="M1527,486L1556,329L1378,357Z" fill="#5085bd" stroke="#5085bd" stroke-width="1.51"/><path d="M277,371L250,505L485,603Z" fill="#8abcdd" stroke="#8abcdd" stroke-width="1.51"/><path d="M373,11L351,97L563,152Z" fill="#afd1e7" stroke="#afd1e7" stroke-width="1.51"/><path d="M565,-49L373,11L563,152Z" fill="#aed0e7" stroke="#aed0e7" stroke-width="1.51"/><path d="M99,342L136,519L277,371Z" fill="#9fc7e4" stroke="#9fc7e4" stroke-width="1.51"/><path d="M1556,329L1526,99L1305,205Z" fill="#6992c4" stroke="#6992c4" stroke-width="1.51"/><path d="M1072,-290L979,-248L1087,-76Z" fill="#98bcde" stroke="#98bcde" stroke-width="1.51"/><path d="M1087,-76L979,-248L876,10Z" fill="#95bdde" stroke="#95bdde" stroke-width="1.51"/><path d="M653,-60L509,-190L565,-49Z" fill="#b0d1e8" stroke="#b0d1e8" stroke-width="1.51"/><path d="M565,-49L509,-190L373,11Z" fill="#b7d5e9" stroke="#b7d5e9" stroke-width="1.51"/><path d="M726,1216L883,935L783,915Z" fill="#3f7db9" stroke="#3f7db9" stroke-width="1.51"/><path d="M1527,486L1702,580L1556,329Z" fill="#427ab4" stroke="#427ab4" stroke-width="1.51"/><path d="M1529,967L1586,745L1316,765Z" fill="#1e67ad" stroke="#1e67ad" stroke-width="1.51"/><path d="M537,922L726,1216L783,915Z" fill="#4b83bc" stroke="#4b83bc" stroke-width="1.51"/><path d="M306,990L471,1091L537,922Z" fill="#658fc2" stroke="#658fc2" stroke-width="1.51"/><path d="M306,990L537,922L374,753Z" fill="#6b9aca" stroke="#6b9aca" stroke-width="1.51"/><path d="M745,-308L509,-190L653,-60Z" fill="#b1d1e9" stroke="#b1d1e9" stroke-width="1.51"/><path d="M979,-248L745,-308L876,10Z" fill="#a1c5e3" stroke="#a1c5e3" stroke-width="1.51"/><path d="M1267,-226L1072,-290L1087,-76Z" fill="#94b6db" stroke="#94b6db" stroke-width="1.51"/><path d="M1267,-226L1087,-76L1260,-72Z" fill="#8dafd8" stroke="#8dafd8" stroke-width="1.51"/><path d="M471,1091L726,1216L537,922Z" fill="#5482b9" stroke="#5482b9" stroke-width="1.51"/><path d="M1535,-49L1267,-226L1260,-72Z" fill="#88a5d2" stroke="#88a5d2" stroke-width="1.51"/><path d="M250,505L153,725L374,753Z" fill="#83b2d8" stroke="#83b2d8" stroke-width="1.51"/><path d="M277,371L136,519L250,505Z" fill="#95c2e1" stroke="#95c2e1" stroke-width="1.51"/><path d="M99,342L277,371L70,136Z" fill="#afd0e7" stroke="#afd0e7" stroke-width="1.51"/><path d="M1329,973L1529,967L1316,765Z" fill="#1b66ac" stroke="#1b66ac" stroke-width="1.51"/><path d="M918,1192L1186,1195L1136,891Z" fill="#2669aa" stroke="#2669aa" stroke-width="1.51"/><path d="M726,1216L1186,1195L918,1192Z" fill="#2f66a0" stroke="#2f66a0" stroke-width="1.51"/><path d="M1186,1195L1269,1164L1136,891Z" fill="#1e63a7" stroke="#1e63a7" stroke-width="1.51"/><path d="M1072,-290L745,-308L979,-248Z" fill="#a4c5e3" stroke="#a4c5e3" stroke-width="1.51"/><path d="M1561,1154L1529,967L1329,973Z" fill="#0f57a1" stroke="#0f57a1" stroke-width="1.51"/><path d="M1586,745L1702,580L1527,486Z" fill="#3270ae" stroke="#3270ae" stroke-width="1.51"/><path d="M1556,329L1724,185L1526,99Z" fill="#6689bb" stroke="#6689bb" stroke-width="1.51"/><path d="M1691,810L1702,580L1586,745Z" fill="#2665a5" stroke="#2665a5" stroke-width="1.51"/><path d="M153,725L306,990L374,753Z" fill="#78a4d1" stroke="#78a4d1" stroke-width="1.51"/><path d="M136,519L153,725L250,505Z" fill="#8fbadd" stroke="#8fbadd" stroke-width="1.51"/><path d="M1728,-68L1535,-49L1526,99Z" fill="#7992c2" stroke="#7992c2" stroke-width="1.51"/><path d="M1526,99L1535,-49L1260,-72Z" fill="#7e9ccb" stroke="#7e9ccb" stroke-width="1.51"/><path d="M70,136L277,371L351,97Z" fill="#b3d2e8" stroke="#b3d2e8" stroke-width="1.51"/><path d="M-19,805L121,956L153,725Z" fill="#85a9d4" stroke="#85a9d4" stroke-width="1.51"/><path d="M70,136L351,97L69,-94Z" fill="#c6dbef" stroke="#c6dbef" stroke-width="1.51"/><path d="M1529,967L1691,810L1586,745Z" fill="#185fa4" stroke="#185fa4" stroke-width="1.51"/><path d="M1932,416L1755,303L1702,580Z" fill="#426fa3" stroke="#426fa3" stroke-width="1.51"/><path d="M1702,580L1755,303L1556,329Z" fill="#4a79af" stroke="#4a79af" stroke-width="1.51"/><path d="M1755,303L1724,185L1556,329Z" fill="#5b81b2" stroke="#5b81b2" stroke-width="1.51"/><path d="M306,990L269,1098L471,1091Z" fill="#6a8dc0" stroke="#6a8dc0" stroke-width="1.51"/><path d="M471,1091L269,1098L726,1216Z" fill="#5b81b3" stroke="#5b81b3" stroke-width="1.51"/><path d="M181,1089L269,1098L306,990Z" fill="#7190c3" stroke="#7190c3" stroke-width="1.51"/><path d="M69,-94L351,97L373,11Z" fill="#c2d9ed" stroke="#c2d9ed" stroke-width="1.51"/><path d="M509,-190L314,-222L373,11Z" fill="#c0dbec" stroke="#c0dbec" stroke-width="1.51"/><path d="M745,-308L314,-222L509,-190Z" fill="#bedaec" stroke="#bedaec" stroke-width="1.51"/><path d="M1933,570L1932,416L1702,580Z" fill="#37679c" stroke="#37679c" stroke-width="1.51"/><path d="M1529,967L1723,905L1691,810Z" fill="#14579d" stroke="#14579d" stroke-width="1.51"/><path d="M1702,1134L1723,905L1529,967Z" fill="#0d4f96" stroke="#0d4f96" stroke-width="1.51"/><path d="M153,725L121,956L306,990Z" fill="#7ca0cf" stroke="#7ca0cf" stroke-width="1.51"/><path d="M-19,805L153,725L-77,610Z" fill="#8eb4da" stroke="#8eb4da" stroke-width="1.51"/><path d="M153,725L136,519L-77,610Z" fill="#92bbde" stroke="#92bbde" stroke-width="1.51"/><path d="M1269,1164L1561,1154L1329,973Z" fill="#12579e" stroke="#12579e" stroke-width="1.51"/><path d="M1186,1195L1561,1154L1269,1164Z" fill="#145397" stroke="#145397" stroke-width="1.51"/><path d="M269,1098L-34,1133L726,1216Z" fill="#6886b5" stroke="#6886b5" stroke-width="1.51"/><path d="M121,956L181,1089L306,990Z" fill="#7796c7" stroke="#7796c7" stroke-width="1.51"/><path d="M1924,118L1728,-68L1724,185Z" fill="#6d81ae" stroke="#6d81ae" stroke-width="1.51"/><path d="M1724,185L1728,-68L1526,99Z" fill="#728aba" stroke="#728aba" stroke-width="1.51"/><path d="M1535,-49L1594,-255L1267,-226Z" fill="#89a0ce" stroke="#89a0ce" stroke-width="1.51"/><path d="M121,956L-34,1133L181,1089Z" fill="#7b94c6" stroke="#7b94c6" stroke-width="1.51"/><path d="M-77,610L136,519L-132,360Z" fill="#9fc6e3" stroke="#9fc6e3" stroke-width="1.51"/><path d="M1728,-68L1594,-255L1535,-49Z" fill="#8094c3" stroke="#8094c3" stroke-width="1.51"/><path d="M1267,-226L1594,-255L1072,-290Z" fill="#92add7" stroke="#92add7" stroke-width="1.51"/><path d="M-132,360L136,519L99,342Z" fill="#a6cbe6" stroke="#a6cbe6" stroke-width="1.51"/><path d="M-131,163L-132,360L99,342Z" fill="#b8d6ea" stroke="#b8d6ea" stroke-width="1.51"/><path d="M314,-222L69,-94L373,11Z" fill="#c9def0" stroke="#c9def0" stroke-width="1.51"/><path d="M1933,570L1702,580L1908,781Z" fill="#2a5f98" stroke="#2a5f98" stroke-width="1.51"/><path d="M1755,303L1924,118L1724,185Z" fill="#607ca9" stroke="#607ca9" stroke-width="1.51"/><path d="M1908,781L1702,580L1691,810Z" fill="#235d9a" stroke="#235d9a" stroke-width="1.51"/><path d="M1561,1154L1702,1134L1529,967Z" fill="#084c94" stroke="#084c94" stroke-width="1.51"/><path d="M1723,905L1908,781L1691,810Z" fill="#185495" stroke="#185495" stroke-width="1.51"/><path d="M1930,982L1908,781L1723,905Z" fill="#144d8d" stroke="#144d8d" stroke-width="1.51"/><path d="M-131,163L99,342L70,136Z" fill="#bcd8eb" stroke="#bcd8eb" stroke-width="1.51"/><path d="M314,-222L87,-200L69,-94Z" fill="#d4e4f3" stroke="#d4e4f3" stroke-width="1.51"/><path d="M-153,-28L-131,163L70,136Z" fill="#cde0f1" stroke="#cde0f1" stroke-width="1.51"/><path d="M-44,-321L87,-200L314,-222Z" fill="#dae8f6" stroke="#dae8f6" stroke-width="1.51"/><path d="M1932,416L1924,118L1755,303Z" fill="#5777a4" stroke="#5777a4" stroke-width="1.51"/><path d="M1728,-68L1763,-253L1594,-255Z" fill="#8292bc" stroke="#8292bc" stroke-width="1.51"/><path d="M-153,-28L70,136L69,-94Z" fill="#d0e1f3" stroke="#d0e1f3" stroke-width="1.51"/><path d="M1594,-255L1763,-253L1072,-290Z" fill="#8ea3cf" stroke="#8ea3cf" stroke-width="1.51"/><path d="M1072,-290L1763,-253L745,-308Z" fill="#98b5db" stroke="#98b5db" stroke-width="1.51"/><path d="M1927,-102L1763,-253L1728,-68Z" fill="#7a88b1" stroke="#7a88b1" stroke-width="1.51"/><path d="M1908,781L1930,982L1933,570Z" fill="#1e5592" stroke="#1e5592" stroke-width="1.51"/><path d="M1702,1134L1930,982L1723,905Z" fill="#0c468a" stroke="#0c468a" stroke-width="1.51"/><path d="M-243,779L-129,943L-19,805Z" fill="#8eadd7" stroke="#8eadd7" stroke-width="1.51"/><path d="M-19,805L-129,943L121,956Z" fill="#86a4d2" stroke="#86a4d2" stroke-width="1.51"/><path d="M-243,779L-19,805L-77,610Z" fill="#93b6db" stroke="#93b6db" stroke-width="1.51"/><path d="M181,1089L-34,1133L269,1098Z" fill="#768ebf" stroke="#768ebf" stroke-width="1.51"/><path d="M-129,943L-34,1133L121,956Z" fill="#829bca" stroke="#829bca" stroke-width="1.51"/><path d="M1924,118L1927,-102L1728,-68Z" fill="#7282ad" stroke="#7282ad" stroke-width="1.51"/><path d="M1987,-213L1927,-102L1924,118Z" fill="#7584ad" stroke="#7584ad" stroke-width="1.51"/><path d="M-315,550L-243,779L-77,610Z" fill="#9cc1e0" stroke="#9cc1e0" stroke-width="1.51"/><path d="M-131,163L-222,159L-132,360Z" fill="#c3dded" stroke="#c3dded" stroke-width="1.51"/><path d="M-44,-321L-153,-28L69,-94Z" fill="#dbe8f6" stroke="#dbe8f6" stroke-width="1.51"/><path d="M-153,-28L-222,159L-131,163Z" fill="#d0e2f2" stroke="#d0e2f2" stroke-width="1.51"/><path d="M-129,943L-227,1125L-34,1133Z" fill="#8599c8" stroke="#8599c8" stroke-width="1.51"/><path d="M-315,550L-77,610L-132,360Z" fill="#a6cae6" stroke="#a6cae6" stroke-width="1.51"/><path d="M1702,1134L1918,1141L1930,982Z" fill="#093e7f" stroke="#093e7f" stroke-width="1.51"/><path d="M1561,1154L1918,1141L1702,1134Z" fill="#093f81" stroke="#093f81" stroke-width="1.51"/><path d="M1186,1195L1918,1141L1561,1154Z" fill="#09488e" stroke="#09488e" stroke-width="1.51"/><path d="M-345,345L-315,550L-132,360Z" fill="#b3d3ea" stroke="#b3d3ea" stroke-width="1.51"/><path d="M87,-200L-44,-321L69,-94Z" fill="#dbe8f6" stroke="#dbe8f6" stroke-width="1.51"/><path d="M745,-308L-44,-321L314,-222Z" fill="#cee2f1" stroke="#cee2f1" stroke-width="1.51"/><path d="M-315,550L-250,911L-243,779Z" fill="#99b9dd" stroke="#99b9dd" stroke-width="1.51"/><path d="M-243,779L-250,911L-129,943Z" fill="#90acd6" stroke="#90acd6" stroke-width="1.51"/><path d="M-222,159L-345,345L-132,360Z" fill="#c0dbed" stroke="#c0dbed" stroke-width="1.51"/><path d="M-273,-82L-345,345L-222,159Z" fill="#d1e4f2" stroke="#d1e4f2" stroke-width="1.51"/><path d="M-273,-82L-222,159L-153,-28Z" fill="#d9e7f5" stroke="#d9e7f5" stroke-width="1.51"/><path d="M1932,416L1987,-213L1924,118Z" fill="#687ea9" stroke="#687ea9" stroke-width="1.51"/><path d="M1927,-102L1987,-213L1763,-253Z" fill="#7c88b0" stroke="#7c88b0" stroke-width="1.51"/><path d="M1933,570L1987,-213L1932,416Z" fill="#5978a4" stroke="#5978a4" stroke-width="1.51"/><path d="M1930,982L1987,-213L1933,570Z" fill="#406c9f" stroke="#406c9f" stroke-width="1.51"/><path d="M-302,-198L-273,-82L-153,-28Z" fill="#e1edf8" stroke="#e1edf8" stroke-width="1.51"/><path d="M-315,550L-227,1125L-250,911Z" fill="#93afd8" stroke="#93afd8" stroke-width="1.51"/><path d="M-250,911L-227,1125L-129,943Z" fill="#8ba2cf" stroke="#8ba2cf" stroke-width="1.51"/><path d="M-34,1133L-227,1125L726,1216Z" fill="#7489b8" stroke="#7489b8" stroke-width="1.51"/><path d="M-273,-82L-302,-198L-345,345Z" fill="#dde9f7" stroke="#dde9f7" stroke-width="1.51"/><path d="M-44,-321L-302,-198L-153,-28Z" fill="#e2edf8" stroke="#e2edf8" stroke-width="1.51"/></svg>