<svg xmlns="http://www.w3.org/2000/svg" width="1440" height="900"><path d="M771,486L888,604L946,326Z" fill="#67bd70" stroke="#67bd70" stroke-width="1.51"/><path d="M888,604L1107,500L946,326Z" fill="#5cb76a" stroke="#5cb76a" stroke-width="1.51"/><path d="M946,326L770,300L771,486Z" fill="#79c577" stroke="#79c577" stroke-width="1.51"/><path d="M1107,500L1153,379L946,326Z" fill="#61b66a" stroke="#61b66a" stroke-width="1.51"/><path d="M888,604L1056,708L1107,500Z" fill="#47ac5f" stroke="#47ac5f" stroke-width="1.51"/><path d="M695,792L971,727L888,604Z" fill="#4dac61" stroke="#4dac61" stroke-width="1.51"/><path d="M971,727L1056,708L888,604Z" fill="#42a95c" stroke="#42a95c" stroke-width="1.51"/><path d="M1107,500L1305,614L1153,379Z" fill="#4ea85e" stroke="#4ea85e" stroke-width="1.51"/><path d="M946,326L758,150L770,300Z" fill="#89cc7d" stroke="#89cc7d" stroke-width="1.51"/><path d="M1153,379L982,132L946,326Z" fill="#75c072" stroke="#75c072" stroke-width="1.51"/><path d="M485,603L695,792L771,486Z" fill="#69bd6f" stroke="#69bd6f" stroke-width="1.51"/><path d="M982,132L758,150L946,326Z" fill="#89cb7d" stroke="#89cb7d" stroke-width="1.51"/><path d="M771,486L695,792L888,604Z" fill="#5bb769" stroke="#5bb769" stroke-width="1.51"/><path d="M971,727L1136,891L1056,708Z" fill="#359b52" stroke="#359b52" stroke-width="1.51"/><path d="M485,603L771,486L452,313Z" fill="#85cc7d" stroke="#85cc7d" stroke-width="1.51"/><path d="M1056,708L1305,614L1107,500Z" fill="#3fa258" stroke="#3fa258" stroke-width="1.51"/><path d="M452,313L771,486L770,300Z" fill="#89ce7f" stroke="#89ce7f" stroke-width="1.51"/><path d="M1153,379L1162,88L982,132Z" fill="#7bbf72" stroke="#7bbf72" stroke-width="1.51"/><path d="M982,132L876,10L758,150Z" fill="#97d184" stroke="#97d184" stroke-width="1.51"/><path d="M1305,205L1162,88L1153,379Z" fill="#73b66c" stroke="#73b66c" stroke-width="1.51"/><path d="M1087,-76L876,10L982,132Z" fill="#96cf82" stroke="#96cf82" stroke-width="1.51"/><path d="M758,150L563,152L770,300Z" fill="#9bd587" stroke="#9bd587" stroke-width="1.51"/><path d="M653,-60L563,152L758,150Z" fill="#acdc8e" stroke="#acdc8e" stroke-width="1.51"/><path d="M695,792L783,915L971,727Z" fill="#49a45b" stroke="#49a45b" stroke-width="1.51"/><path d="M1056,708L1316,765L1305,614Z" fill="#32964f" stroke="#32964f" stroke-width="1.51"/><path d="M537,922L783,915L695,792Z" fill="#54a55f" stroke="#54a55f" stroke-width="1.51"/><path d="M1378,357L1305,205L1153,379Z" fill="#63ac64" stroke="#63ac64" stroke-width="1.51"/><path d="M783,915L883,935L971,727Z" fill="#3f9d56" stroke="#3f9d56" stroke-width="1.51"/><path d="M1305,614L1378,357L1153,379Z" fill="#50a55d" stroke="#50a55d" stroke-width="1.51"/><path d="M883,935L1136,891L971,727Z" fill="#329750" stroke="#329750" stroke-width="1.51"/><path d="M563,152L452,313L770,300Z" fill="#9ed687" stroke="#9ed687" stroke-width="1.51"/><path d="M1136,891L1316,765L1056,708Z" fill="#2e914c" stroke="#2e914c" stroke-width="1.51"/><path d="M1305,614L1527,486L1378,357Z" fill="#469b58" stroke="#469b58" stroke-width="1.51"/><path d="M485,603L454,736L695,792Z" fill="#6cba6d" stroke="#6cba6d" stroke-width="1.51"/><path d="M374,753L454,736L485,603Z" fill="#78bf72" stroke="#78bf72" stroke-width="1.51"/><path d="M1162,88L1087,-76L982,132Z" fill="#8ec87b" stroke="#8ec87b" stroke-width="1.51"/><path d="M1260,-72L1087,-76L1162,88Z" fill="#8ec37a" stroke="#8ec37a" stroke-width="1.51"/><path d="M351,97L277,371L452,313Z" fill="#b2e090" stroke="#b2e090" stroke-width="1.51"/><path d="M876,10L653,-60L758,150Z" fill="#a7da8c" stroke="#a7da8c" stroke-width="1.51"/><path d="M745,-308L653,-60L876,10Z" fill="#b3de94" stroke="#b3de94" stroke-width="1.51"/><path d="M726,1216L918,1192L883,935Z" fill="#368a4f" stroke="#368a4f" stroke-width="1.51"/><path d="M454,736L537,922L695,792Z" fill="#63af66" stroke="#63af66" stroke-width="1.51"/><path d="M454,736L374,753L537,922Z" fill="#6fb46a" stroke="#6fb46a" stroke-width="1.51"/><path d="M250,505L374,753L485,603Z" fill="#85c97a" stroke="#85c97a" stroke-width="1.51"/><path d="M1586,745L1527,486L1305,614Z" fill="#2f8f4e" stroke="#2f8f4e" stroke-width="1.51"/><path d="M1378,357L1556,329L1305,205Z" fill="#60a662" stroke="#60a662" stroke-width="1.51"/><path d="M1305,205L1260,-72L1162,88Z" fill="#82ba72" stroke="#82ba72" stroke-width="1.51"/><path d="M653,-60L565,-49L563,152Z" fill="#b8e294" stroke="#b8e294" stroke-width="1.51"/><path d="M1526,99L1260,-72L1305,205Z" fill="#7cb36e" stroke="#7cb36e" stroke-width="1.51"/><path d="M452,313L277,371L485,603Z" fill="#99d486" stroke="#99d486" stroke-width="1.51"/><path d="M351,97L452,313L563,152Z" fill="#b3e090" stroke="#b3e090" stroke-width="1.51"/><path d="M1316,765L1586,745L1305,614Z" fill="#288b49" stroke="#288b49" stroke-width="1.51"/><path d="M1136,891L1329,973L1316,765Z" fill="#238343" stroke="#238343" stroke-width="1.51"/><path d="M1269,1164L1329,973L1136,891Z" fill="#1a7b40" stroke="#1a7b40" stroke-width="1.51"/><path d="M918,1192L1136,891L883,935Z" fill="#2b8d4c" stroke="#2b8d4c" stroke-width="1.51"/><path d="M1527,486L1556,329L1378,357Z" fill="#509c5b" stroke="#509c5b" stroke-width="1.51"/><path d="M277,371L250,505L485,603Z" fill="#97d284" stroke="#97d284" stroke-width="1.51"/><path d="M373,11L351,97L563,152Z" fill="#c0e597" stroke="#c0e597" stroke-width="1.51"/><path d="M565,-49L373,11L563,152Z" fill="#bee597" stroke="#bee597" stroke-width="1.51"/><path d="M99,342L136,519L277,371Z" fill="#aede90" stroke="#aede90" stroke-width="1.51"/><path d="M1556,329L1526,99L1305,205Z" fill="#69a865" stroke="#69a865" stroke-width="1.51"/><path d="M1072,-290L979,-248L1087,-76Z" fill="#a0d18d" stroke="#a0d18d" stroke-width="1.51"/><path d="M1087,-76L979,-248L876,10Z" fill="#9fd388" stroke="#9fd388" stroke-width="1.51"/><path d="M653,-60L509,-190L565,-49Z" fill="#c2e69b" stroke="#c2e69b" stroke-width="1.51"/><path d="M565,-49L509,-190L373,11Z" fill="#c9e99d" stroke="#c9e99d" stroke-width="1.51"/><path d="M726,1216L883,935L783,915Z" fill="#3f9454" stroke="#3f9454" stroke-width="1.51"/><path d="M1527,486L1702,580L1556,329Z" fill="#419255" stroke="#419255" stroke-width="1.51"/><path d="M1529,967L1586,745L1316,765Z" fill="#1b7c40" stroke="#1b7c40" stroke-width="1.51"/><path d="M537,922L726,1216L783,915Z" fill="#4b9a59" stroke="#4b9a59" stroke-width="1.51"/><path d="M306,990L471,1091L537,922Z" fill="#65a562" stroke="#65a562" stroke-width="1.51"/><path d="M306,990L537,922L374,753Z" fill="#6eaf68" stroke="#6eaf68" stroke-width="1.51"/><path d="M745,-308L509,-190L653,-60Z" fill="#c1e59f" stroke="#c1e59f" stroke-width="1.51"/><path d="M979,-248L745,-308L876,10Z" fill="#adda94" stroke="#adda94" stroke-width="1.51"/><path d="M1267,-226L1072,-290L1087,-76Z" fill="#9ac987" stroke="#9ac987" stroke-width="1.51"/><path d="M1267,-226L1087,-76L1260,-72Z" fill="#94c47e" stroke="#94c47e" stroke-width="1.51"/><path d="M471,1091L726,1216L537,922Z" fill="#53995b" stroke="#53995b" stroke-width="1.51"/><path d="M1535,-49L1267,-226L1260,-72Z" fill="#8cba78" stroke="#8cba78" stroke-width="1.51"/><path d="M250,505L153,725L374,753Z" fill="#89ca7b" stroke="#89ca7b" stroke-width="1.51"/><path d="M277,371L136,519L250,505Z" fill="#a3d88b" stroke="#a3d88b" stroke-width="1.51"/><path d="M99,342L277,371L70,136Z" fill="#c0e597" stroke="#c0e597" stroke-width="1.51"/><path d="M1329,973L1529,967L1316,765Z" fill="#1a7a3f" stroke="#1a7a3f" stroke-width="1.51"/><path d="M918,1192L1186,1195L1136,891Z" fill="#207f44" stroke="#207f44" stroke-width="1.51"/><path d="M726,1216L1186,1195L918,1192Z" fill="#297d47" stroke="#297d47" stroke-width="1.51"/><path d="M1186,1195L1269,1164L1136,891Z" fill="#19793f" stroke="#19793f" stroke-width="1.51"/><path d="M1072,-290L745,-308L979,-248Z" fill="#a9d89b" stroke="#a9d89b" stroke-width="1.51"/><path d="M1561,1154L1529,967L1329,973Z" fill="#086d39" stroke="#086d39" stroke-width="1.51"/><path d="M1586,745L1702,580L1527,486Z" fill="#2d884b" stroke="#2d884b" stroke-width="1.51"/><path d="M1556,329L1724,185L1526,99Z" fill="#659f61" stroke="#659f61" stroke-width="1.51"/><path d="M1691,810L1702,580L1586,745Z" fill="#1f7c43" stroke="#1f7c43" stroke-width="1.51"/><path d="M153,725L306,990L374,753Z" fill="#7cb86f" stroke="#7cb86f" stroke-width="1.51"/><path d="M136,519L153,725L250,505Z" fill="#99d283" stroke="#99d283" stroke-width="1.51"/><path d="M1728,-68L1535,-49L1526,99Z" fill="#7aa86c" stroke="#7aa86c" stroke-width="1.51"/><path d="M1526,99L1535,-49L1260,-72Z" fill="#80b270" stroke="#80b270" stroke-width="1.51"/><path d="M70,136L277,371L351,97Z" fill="#c3e698" stroke="#c3e698" stroke-width="1.51"/><path d="M-19,805L121,956L153,725Z" fill="#8abe76" stroke="#8abe76" stroke-width="1.51"/><path d="M70,136L351,97L69,-94Z" fill="#d9f0a3" stroke="#d9f0a3" stroke-width="1.51"/><path d="M1529,967L1691,810L1586,745Z" fill="#15733c" stroke="#15733c" stroke-width="1.51"/><path d="M1932,416L1755,303L1702,580Z" fill="#428651" stroke="#428651" stroke-width="1.51"/><path d="M1702,580L1755,303L1556,329Z" fill="#499056" stroke="#499056" stroke-width="1.51"/><path d="M1755,303L1724,185L1556,329Z" fill="#5b975c" stroke="#5b975c" stroke-width="1.51"/><path d="M306,990L269,1098L471,1091Z" fill="#69a364" stroke="#69a364" stroke-width="1.51"/><path d="M471,1091L269,1098L726,1216Z" fill="#5a975c" stroke="#5a975c" stroke-width="1.51"/><path d="M181,1089L269,1098L306,990Z" fill="#70a767" stroke="#70a767" stroke-width="1.51"/><path d="M69,-94L351,97L373,11Z" fill="#d4eea1" stroke="#d4eea1" stroke-width="1.51"/><path d="M509,-190L314,-222L373,11Z" fill="#d4eea4" stroke="#d4eea4" stroke-width="1.51"/><path d="M745,-308L314,-222L509,-190Z" fill="#cdeaaa" stroke="#cdeaaa" stroke-width="1.51"/><path d="M1933,570L1932,416L1702,580Z" fill="#357e4b" stroke="#357e4b" stroke-width="1.51"/><path d="M1529,967L1723,905L1691,810Z" fill="#106d39" stroke="#106d39" stroke-width="1.51"/><path d="M1702,1134L1723,905L1529,967Z" fill="#056536" stroke="#056536" stroke-width="1.51"/><path d="M153,725L121,956L306,990Z" fill="#7fb66f" stroke="#7fb66f" stroke-width="1.51"/><path d="M-19,805L153,725L-77,610Z" fill="#96cb81" stroke="#96cb81" stroke-width="1.51"/><path d="M153,725L136,519L-77,610Z" fill="#9bd286" stroke="#9bd286" stroke-width="1.51"/><path d="M1269,1164L1561,1154L1329,973Z" fill="#0c6c39" stroke="#0c6c39" stroke-width="1.51"/><path d="M1186,1195L1561,1154L1269,1164Z" fill="#0f6837" stroke="#0f6837" stroke-width="1.51"/><path d="M269,1098L-34,1133L726,1216Z" fill="#689b61" stroke="#689b61" stroke-width="1.51"/><path d="M121,956L181,1089L306,990Z" fill="#77ac6b" stroke="#77ac6b" stroke-width="1.51"/><path d="M1924,118L1728,-68L1724,185Z" fill="#6d9862" stroke="#6d9862" stroke-width="1.51"/><path d="M1724,185L1728,-68L1526,99Z" fill="#72a166" stroke="#72a166" stroke-width="1.51"/><path d="M1535,-49L1594,-255L1267,-226Z" fill="#8bb579" stroke="#8bb579" stroke-width="1.51"/><path d="M121,956L-34,1133L181,1089Z" fill="#7cab6d" stroke="#7cab6d" stroke-width="1.51"/><path d="M-77,610L136,519L-132,360Z" fill="#afdc91" stroke="#afdc91" stroke-width="1.51"/><path d="M1728,-68L1594,-255L1535,-49Z" fill="#82aa72" stroke="#82aa72" stroke-width="1.51"/><path d="M1267,-226L1594,-255L1072,-290Z" fill="#93be85" stroke="#93be85" stroke-width="1.51"/><path d="M-132,360L136,519L99,342Z" fill="#b6e195" stroke="#b6e195" stroke-width="1.51"/><path d="M-131,163L-132,360L99,342Z" fill="#cae99f" stroke="#cae99f" stroke-width="1.51"/><path d="M314,-222L69,-94L373,11Z" fill="#ddf2a7" stroke="#ddf2a7" stroke-width="1.51"/><path d="M1933,570L1702,580L1908,781Z" fill="#227643" stroke="#227643" stroke-width="1.51"/><path d="M1755,303L1924,118L1724,185Z" fill="#5f915c" stroke="#5f915c" stroke-width="1.51"/><path d="M1908,781L1702,580L1691,810Z" fill="#1c7440" stroke="#1c7440" stroke-width="1.51"/><path d="M1561,1154L1702,1134L1529,967Z" fill="#006235" stroke="#006235" stroke-width="1.51"/><path d="M1723,905L1908,781L1691,810Z" fill="#146939" stroke="#146939" stroke-width="1.51"/><path d="M1930,982L1908,781L1723,905Z" fill="#0f6135" stroke="#0f6135" stroke-width="1.51"/><path d="M-131,163L99,342L70,136Z" fill="#d0eca0" stroke="#d0eca0" stroke-width="1.51"/><path d="M314,-222L87,-200L69,-94Z" fill="#e9f6b0" stroke="#e9f6b0" stroke-width="1.51"/><path d="M-153,-28L-131,163L70,136Z" fill="#e2f3aa" stroke="#e2f3aa" stroke-width="1.51"/><path d="M-44,-321L87,-200L314,-222Z" fill="#edf8ba" stroke="#edf8ba" stroke-width="1.51"/><path d="M1932,416L1924,118L1755,303Z" fill="#568c58" stroke="#568c58" stroke-width="1.51"/><path d="M1728,-68L1763,-253L1594,-255Z" fill="#83a774" stroke="#83a774" stroke-width="1.51"/><path d="M-153,-28L70,136L69,-94Z" fill="#e5f5ac" stroke="#e5f5ac" stroke-width="1.51"/><path d="M1594,-255L1763,-253L1072,-290Z" fill="#8cb582" stroke="#8cb582" stroke-width="1.51"/><path d="M1072,-290L1763,-253L745,-308Z" fill="#99c68d" stroke="#99c68d" stroke-width="1.51"/><path d="M1927,-102L1763,-253L1728,-68Z" fill="#7e9e6c" stroke="#7e9e6c" stroke-width="1.51"/><path d="M1908,781L1930,982L1933,570Z" fill="#186a3b" stroke="#186a3b" stroke-width="1.51"/><path d="M1702,1134L1930,982L1723,905Z" fill="#045c32" stroke="#045c32" stroke-width="1.51"/><path d="M-243,779L-129,943L-19,805Z" fill="#94c07e" stroke="#94c07e" stroke-width="1.51"/><path d="M-19,805L-129,943L121,956Z" fill="#8aba76" stroke="#8aba76" stroke-width="1.51"/><path d="M-243,779L-19,805L-77,610Z" fill="#9bcb84" stroke="#9bcb84" stroke-width="1.51"/><path d="M181,1089L-34,1133L269,1098Z" fill="#77a669" stroke="#77a669" stroke-width="1.51"/><path d="M-129,943L-34,1133L121,956Z" fill="#84b173" stroke="#84b173" stroke-width="1.51"/><path d="M1924,118L1927,-102L1728,-68Z" fill="#749866" stroke="#749866" stroke-width="1.51"/><path d="M1987,-213L1927,-102L1924,118Z" fill="#779a68" stroke="#779a68" stroke-width="1.51"/><path d="M-315,550L-243,779L-77,610Z" fill="#a4d592" stroke="#a4d592" stroke-width="1.51"/><path d="M-131,163L-222,159L-132,360Z" fill="#d6eea8" stroke="#d6eea8" stroke-width="1.51"/><path d="M-44,-321L-153,-28L69,-94Z" fill="#f3fbb6" stroke="#f3fbb6" stroke-width="1.51"/><path d="M-153,-28L-222,159L-131,163Z" fill="#e4f4b0" stroke="#e4f4b0" stroke-width="1.51"/><path d="M-129,943L-227,1125L-34,1133Z" fill="#87af76" stroke="#87af76" stroke-width="1.51"/><path d="M-315,550L-77,610L-132,360Z" fill="#b3de99" stroke="#b3de99" stroke-width="1.51"/><path d="M1702,1134L1918,1141L1930,982Z" fill="#00532f" stroke="#00532f" stroke-width="1.51"/><path d="M1561,1154L1918,1141L1702,1134Z" fill="#00552f" stroke="#00552f" stroke-width="1.51"/><path d="M1186,1195L1918,1141L1561,1154Z" fill="#005e33" stroke="#005e33" stroke-width="1.51"/><path d="M-345,345L-315,550L-132,360Z" fill="#c0e4a6" stroke="#c0e4a6" stroke-width="1.51"/><path d="M87,-200L-44,-321L69,-94Z" fill="#f0fab8" stroke="#f0fab8" stroke-width="1.51"/><path d="M745,-308L-44,-321L314,-222Z" fill="#ddf1b5" stroke="#ddf1b5" stroke-width="1.51"/><path d="M-315,550L-250,911L-243,779Z" fill="#9dcb8f" stroke="#9dcb8f" stroke-width="1.51"/><path d="M-243,779L-250,911L-129,943Z" fill="#93be82" stroke="#93be82" stroke-width="1.51"/><path d="M-222,159L-345,345L-132,360Z" fill="#cfebab" stroke="#cfebab" stroke-width="1.51"/><path d="M-273,-82L-345,345L-222,159Z" fill="#e1f3b6" stroke="#e1f3b6" stroke-width="1.51"/><path d="M-273,-82L-222,159L-153,-28Z" fill="#ecf8b8" stroke="#ecf8b8" stroke-width="1.51"/><path d="M1932,416L1987,-213L1924,118Z" fill="#699460" stroke="#699460" stroke-width="1.51"/><path d="M1927,-102L1987,-213L1763,-253Z" fill="#7f9d70" stroke="#7f9d70" stroke-width="1.51"/><path d="M1933,570L1987,-213L1932,416Z" fill="#598d58" stroke="#598d58" stroke-width="1.51"/><path d="M1930,982L1987,-213L1933,570Z" fill="#3f834f" stroke="#3f834f" stroke-width="1.51"/><path d="M-302,-198L-273,-82L-153,-28Z" fill="#f5fbc1" stroke="#f5fbc1" stroke-width="1.51"/><path d="M-315,550L-227,1125L-250,911Z" fill="#94c087" stroke="#94c087" stroke-width="1.51"/><path d="M-250,911L-227,1125L-129,943Z" fill="#8bb57e" stroke="#8bb57e" stroke-width="1.51"/><path d="M-34,1133L-227,1125L726,1216Z" fill="#74a067" stroke="#74a067" stroke-width="1.51"/><path d="M-273,-82L-302,-198L-345,345Z" fill="#edf8bf" stroke="#edf8bf" stroke-width="1.51"/><path d="M-44,-321L-302,-198L-153,-28Z" fill="#f9fcc0" stroke="#f9fcc0" stroke-width="1.51"/></svg>